Coordinates
version=1
nRows=21
nColumns=22
inDegrees=yes

Units are S.I. units (second, meters, Newtons, ...)
If the header above contains a line with 'inDegrees', this indicates whether rotational values are in degrees (yes) or radians (no).

endheader
time	pelvis_tilt	pelvis_list	pelvis_rotation	pelvis_tx	pelvis_ty	pelvis_tz	hip_flexion_r	hip_adduction_r	hip_rotation_r	knee_angle_r	ankle_angle_r	subtalar_angle_r	hip_flexion_l	hip_adduction_l	hip_rotation_l	knee_angle_l	ankle_angle_l	subtalar_angle_l	lumbar_extension	lumbar_bending	lumbar_rotation
      1.28000000	     -1.68422373	     -1.66421019	      2.90992028	     -1.01187191	      0.94125972	     -0.34616646	      6.10049225	     -3.41835419	    -15.06004322	    -18.11703376	     12.46613546	      4.15466381	      2.84763883	     -0.71799368	     -9.83088959	    -14.64783649	     14.45010617	     -3.06745226	     -9.91770430	     -2.27324610	     -5.90263184
      1.29000000	     -1.65524114	     -1.42947650	      3.01808179	     -1.01139876	      0.94085728	     -0.34742259	      6.47436756	     -3.84777087	    -14.97819776	    -19.00028551	     12.76155624	      4.12550432	      2.84564929	     -0.39281926	     -9.71425279	    -14.77406757	     14.51024265	     -3.16230747	    -10.10279535	     -2.51127301	     -5.98371944
      1.30000000	     -1.61063986	     -1.17667320	      3.11966724	     -1.01089597	      0.94043095	     -0.34867541	      6.85717872	     -4.30062584	    -14.87286583	    -19.93625684	     13.05827623	      4.10508960	      2.82448595	     -0.04986905	     -9.60525778	    -14.90679602	     14.58397871	     -3.24349668	    -10.31007765	     -2.76777827	     -6.06536898
      1.31000000	     -1.56570930	     -0.90564746	      3.21391249	     -1.01038341	      0.93996096	     -0.34989883	      7.26717488	     -4.77431883	    -14.73224800	    -20.92403880	     13.34238820	      4.08796961	      2.80497642	      0.31001253	     -9.50290600	    -15.05151880	     14.66042800	     -3.33153189	    -10.52519260	     -3.04850222	     -6.14890643
      1.32000000	     -1.51345088	     -0.62692600	      3.29932985	     -1.00986471	      0.93946786	     -0.35109471	      7.69170696	     -5.25563539	    -14.55771252	    -21.95193151	     13.60716968	      4.07771008	      2.77516631	      0.67492789	     -9.41217372	    -15.19552985	     14.73930733	     -3.41780191	    -10.75842786	     -3.33596839	     -6.23370144
      1.33000000	     -1.44700186	     -0.33888059	      3.36987401	     -1.00932405	      0.93896895	     -0.35226377	      8.12274838	     -5.74580784	    -14.35014578	    -23.01771343	     13.84038165	      4.07347242	      2.72640705	      1.04815564	     -9.33444504	    -15.34229934	     14.82893451	     -3.49580812	    -11.01367833	     -3.63012084	     -6.31546114
      1.34000000	     -1.36996286	     -0.05254694	      3.42572029	     -1.00876250	      0.93847335	     -0.35336856	      8.56230935	     -6.22686905	    -14.10152310	    -24.11490584	     14.03163663	      4.07208095	      2.66217705	      1.41450399	     -9.27004570	    -15.48663342	     14.91987163	     -3.57105839	    -11.28648069	     -3.92614399	     -6.39289485
      1.35000000	     -1.28425246	      0.22570583	      3.46333791	     -1.00817682	      0.93798898	     -0.35443080	      9.01347588	     -6.69218644	    -13.80722031	    -25.24139833	     14.16525007	      4.06939946	      2.58564148	      1.76950004	     -9.22312947	    -15.63096570	     15.01767768	     -3.64820519	    -11.57200401	     -4.20853916	     -6.47014140
      1.36000000	     -1.18938748	      0.48757401	      3.48573366	     -1.00755884	      0.93753052	     -0.35542830	      9.47534605	     -7.12926054	    -13.47263805	    -26.39588038	     14.23964011	      4.06245482	      2.49548216	      2.10300548	     -9.18855484	    -15.77213326	     15.11912994	     -3.72443563	    -11.86918945	     -4.47407687	     -6.54193843
      1.37000000	     -1.09168715	      0.72768312	      3.49051689	     -1.00691141	      0.93709809	     -0.35638005	      9.95940982	     -7.53398415	    -13.09883851	    -27.58323479	     14.24905304	      4.04753836	      2.40140992	      2.41122378	     -9.16382255	    -15.91527824	     15.22263655	     -3.80372786	    -12.16815450	     -4.71056527	     -6.61097760
      1.38000000	     -1.00063537	      0.94095965	      3.48152128	     -1.00623794	      0.93668626	     -0.35727042	     10.48051488	     -7.89940460	    -12.69145600	    -28.81009181	     14.18964144	      4.02098498	      2.31432183	      2.68745859	     -9.15235449	    -16.05892198	     15.32873175	     -3.88974286	    -12.45804777	     -4.91777752	     -6.67972505
      1.39000000	     -0.91361354	      1.12396453	      3.45535838	     -1.00552319	      0.93630927	     -0.35811447	     11.03925501	     -8.22469982	    -12.26129475	    -30.07968668	     14.05557570	      3.97735627	      2.22767168	      2.93044812	     -9.14813775	    -16.19922376	     15.43703106	     -3.97443854	    -12.73672755	     -5.08575348	     -6.74237423
      1.40000000	     -0.84543957	      1.27769707	      3.40994763	     -1.00477506	      0.93595232	     -0.35890183	     11.65912582	     -8.50946506	    -11.79947712	    -31.40079244	     13.84727050	      3.91264402	      2.15633587	      3.14103672	     -9.16096353	    -16.33185396	     15.53814397	     -4.06645854	    -12.98762255	     -5.21938049	     -6.79980392
      1.41000000	     -0.80417080	      1.40679588	      3.33729491	     -1.00398466	      0.93560103	     -0.35962373	     12.35579268	     -8.75626629	    -11.29816147	    -32.78017559	     13.56326011	      3.82096592	      2.10888151	      3.32510260	     -9.19788137	    -16.46068829	     15.62987418	     -4.17162524	    -13.19507343	     -5.32304042	     -6.85277271
      1.42000000	     -0.78383611	      1.51088321	      3.24093302	     -1.00315264	      0.93527177	     -0.36026763	     13.12106686	     -8.96385677	    -10.77122522	    -34.21545129	     13.19277822	      3.69642616	      2.07174191	      3.48035051	     -9.25950917	    -16.56916207	     15.71609457	     -4.27850720	    -13.37083461	     -5.40114822	     -6.89859114
      1.43000000	     -0.80173089	      1.59301434	      3.12668331	     -1.00227614	      0.93491900	     -0.36085014	     13.97499430	     -9.13650060	    -10.22455324	    -35.71158364	     12.75464295	      3.53202855	      2.07347607	      3.60991982	     -9.35891901	    -16.67735127	     15.82033831	     -4.39908635	    -13.49059683	     -5.45263724	     -6.96560714
      1.44000000	     -0.82430350	      1.66479988	      2.97974551	     -1.00132235	      0.93461159	     -0.36135794	     14.87391754	     -9.28138750	     -9.65374793	    -37.24857239	     12.22405487	      3.32678335	      2.04734280	      3.72991580	     -9.47958438	    -16.73189712	     15.89187738	     -4.49252719	    -13.59256602	     -5.49195253	     -7.00339439
      1.45000000	     -0.85283804	      1.72547472	      2.80692082	     -1.00028664	      0.93433789	     -0.36179324	     15.81174302	     -9.39369569	     -9.06181375	    -38.81278821	     11.60850543	      3.08314707	      1.99964068	      3.83842994	     -9.62085028	    -16.74239803	     15.93226191	     -4.55846329	    -13.67526374	     -5.51808079	     -7.02350608
      1.46000000	     -0.92734113	      1.77781798	      2.63468411	     -0.99917319	      0.93399489	     -0.36217350	     16.82764825	     -9.48650050	     -8.48908631	    -40.41108837	     10.97853459	      2.78936940	      1.99639147	      3.93237662	     -9.80405027	    -16.75036587	     16.03115081	     -4.60954331	    -13.69346163	     -5.53585788	     -7.09525728
      1.47000000	     -0.97572655	      1.82701292	      2.43573254	     -0.99794664	      0.93374003	     -0.36248818	     17.82283999	     -9.54495382	     -7.89307700	    -41.98244088	     10.28220994	      2.49012702	      1.91246725	      4.02656932	     -9.99901339	    -16.67201069	     16.06000820	     -4.62249136	    -13.73200585	     -5.54385732	     -7.14776666
      1.48000000	     -1.04770742	      1.87414058	      2.23425961	     -0.99661407	      0.93345242	     -0.36273151	     18.84796149	     -9.58362848	     -7.32219515	    -43.52990535	      9.60304870	      2.18185417	      1.83002986	      4.11433061	    -10.21780965	    -16.55995205	     16.10928960	     -4.60875544	    -13.73228671	     -5.55357064	     -7.23286165
